<svg xmlns="http://www.w3.org/2000/svg" viewBox="0 0 390.82 511"><defs><style>.cls-1,.cls-3,.cls-6,.cls-9{fill:#a2d4ab;}.cls-2,.cls-4{fill:#fff;}.cls-3{opacity:0.25;}.cls-4{opacity:0.88;}.cls-5,.cls-7{fill:#f9f9f9;}.cls-6{opacity:0.9;}.cls-7,.cls-9{opacity:0.5;}.cls-8{fill:#fcfcfc;}</style></defs><title>design_icon</title><g id="Layer_2" data-name="Layer 2"><rect id="clip" class="cls-1" y="92.09" width="390.82" height="418.91" rx="32.26" ry="32.26"/><path id="clipper" class="cls-1" d="M93.68,59.31H300.9a12.76,12.76,0,0,1,12.76,12.76v91.82a0,0,0,0,1,0,0H81.09a0,0,0,0,1,0,0v-92A12.6,12.6,0,0,1,93.68,59.31Z"/><circle id="clipper-2" data-name="clipper" class="cls-1" cx="201.27" cy="59.31" r="59.31"/><rect id="paper" class="cls-2" x="36.19" y="123.45" width="315.55" height="361.22"/><rect id="paper-2" data-name="paper" class="cls-3" x="36.19" y="123.45" width="315.55" height="361.22"/><circle id="hole" class="cls-4" cx="201.61" cy="29.95" r="8.9"/><path class="cls-5" d="M264.85,94.83h19.9a23.3,23.3,0,0,1,23.3,23.3v22.8a0,0,0,0,1,0,0h-66.5a0,0,0,0,1,0,0v-22.8A23.3,23.3,0,0,1,264.85,94.83Z" transform="translate(-258.37 51.2) rotate(-22.51)"/><path class="cls-1" d="M264.85,94.83h19.9a23.3,23.3,0,0,1,23.3,23.3v22.8a0,0,0,0,1,0,0h-66.5a0,0,0,0,1,0,0v-22.8A23.3,23.3,0,0,1,264.85,94.83Z" transform="translate(-258.37 51.2) rotate(-22.51)"/><polygon class="cls-2" points="130.47 361.96 32.83 123.98 18.01 88.21 78.13 62.3 190.38 333.14 130.47 361.96"/><polygon class="cls-6" points="130.47 361.96 32.83 123.98 18.01 88.21 78.13 62.3 190.38 333.14 130.47 361.96"/><rect class="cls-7" x="258.66" y="136.54" width="66.5" height="50.03" transform="translate(-273.79 61.08) rotate(-22.51)"/><polygon class="cls-8" points="130.97 360.76 168.19 407.21 200.05 395 190.61 333.1 130.97 360.76"/><polygon class="cls-9" points="130.74 360.85 168.19 407.21 200.05 395 189.74 331.77 130.74 360.85"/><path class="cls-8" d="M402.36,470.21l24.89,29.35a4.52,4.52,0,0,0,8-3l-1-38.52Z" transform="translate(-234.18 -63)"/><path class="cls-6" d="M402.36,470.21l24.89,29.35a4.52,4.52,0,0,0,8-3l-1-38.52Z" transform="translate(-234.18 -63)"/><path class="cls-1" d="M434.13,498.19a175.59,175.59,0,0,0,53.58,15c8.3,1,17.68,1.59,25.61-1.61,9-3.62,11.18-13.22,12.9-22,6-30.58-5.14-60.86-19.87-87.22C490.37,373.8,472,346.75,460,316.1c-6.77-17.25-12-35.64-13.35-54.2-.67-9.49-.24-19.69,3.87-28.44,3.7-7.87,11.28-15.82,20.74-14.45,1.89.27,2.7-2.62.8-2.89-11.55-1.68-20.64,7.45-24.83,17.41-5.75,13.65-4.13,29.43-1.59,43.62,5.59,31.24,19.31,60.21,35,87.55,16.13,28.16,36.18,55.43,42.34,88,3,15.78,2.9,32.86-3,48-3.44,8.78-12.42,10.16-21,10.22-11.74.09-23.51-2.4-34.8-5.4-9.67-2.57-19.43-5.59-28.5-9.88-1.74-.82-3.26,1.77-1.51,2.59Z" transform="translate(-234.18 -63)"/></g></svg>