<?xml version="1.0" encoding="utf-8"?>
<!-- Generator: Adobe Illustrator 21.1.0, SVG Export Plug-In . SVG Version: 6.00 Build 0)  -->
<svg version="1.1" id="Layer_1" xmlns="http://www.w3.org/2000/svg" xmlns:xlink="http://www.w3.org/1999/xlink" x="0px" y="0px"
	 viewBox="0 0 500 500" style="enable-background:new 0 0 500 500;" xml:space="preserve">
<style type="text/css">
	.st0{fill:#3EACA8;}
</style>
<g>
	<g>
		<path class="st0" d="M398.9,7.2h-298C49.1,7.2,7,49.3,7,101.1v99.2v198.9c0,51.8,42.1,93.9,93.9,93.9h298
			c51.8,0,93.9-42.1,93.9-93.9V200.3v-99.2C492.8,49.3,450.7,7.2,398.9,7.2z M425.8,63.2l10.7-0.1v10.7v71.6l-82,0.3l-0.3-82.3
			L425.8,63.2z M180.6,200.3c15.6-21.5,40.8-35.6,69.3-35.6s53.8,14.1,69.3,35.6c10.1,14,16.2,31.2,16.2,49.8
			c0,47.1-38.4,85.5-85.5,85.5c-47.2,0-85.5-38.4-85.5-85.5C164.4,231.5,170.4,214.3,180.6,200.3z M445.5,399.1
			c0,25.7-20.9,46.6-46.6,46.6h-298c-25.7,0-46.6-20.9-46.6-46.6V200.3h72.5c-6.3,15.4-9.8,32.2-9.8,49.8
			c0,73.2,59.6,132.8,132.8,132.8c73.2,0,132.8-59.6,132.8-132.8c0-17.6-3.5-34.4-9.8-49.8h72.5V399.1z"/>
	</g>
</g>
</svg>
