<svg id="Layer_1" data-name="Layer 1" xmlns="http://www.w3.org/2000/svg" xmlns:xlink="http://www.w3.org/1999/xlink" viewBox="0 0 484.31 484.31"><defs><style>.cls-1,.cls-2,.cls-3{fill:#3eaca8;stroke-miterlimit:10;}.cls-1{stroke:url(#linear-gradient);}.cls-2{stroke:url(#linear-gradient-2);}.cls-3{stroke:url(#linear-gradient-3);}</style><linearGradient id="linear-gradient" y1="322.71" x2="113.77" y2="322.71" gradientUnits="userSpaceOnUse"><stop offset="0" stop-color="#a2d4ab"/><stop offset="0.5" stop-color="#3eaca8"/><stop offset="1" stop-color="#547a82"/></linearGradient><linearGradient id="linear-gradient-2" x1="8.19" y1="64.39" x2="121.96" y2="64.39" xlink:href="#linear-gradient"/><linearGradient id="linear-gradient-3" x1="185.4" y1="330.21" x2="492.5" y2="330.21" xlink:href="#linear-gradient"/></defs><title>linkin_icon</title><rect class="cls-1" x="0.5" y="161.6" width="112.77" height="322.21"/><path class="cls-2" d="M65.08,120.77A56.39,56.39,0,1,0,8.69,64.38,56.42,56.42,0,0,0,65.08,120.77Z" transform="translate(-8.19 -7.5)"/><path class="cls-3" d="M492,314.24c0-86.95-18.75-145.13-120.1-145.13-48.71,0-81.4,18.1-94.77,43.48h-1.38V169.1H185.9V491.31H279.8V331.6c0-42.11,8-82.89,60.07-82.89,51.32,0,55.47,48.16,55.47,85.61v157H492Z" transform="translate(-8.19 -7.5)"/></svg>