<svg id="Layer_1" data-name="Layer 1" xmlns="http://www.w3.org/2000/svg" viewBox="0 0 1445.04 786.23"><defs><style>.cls-1{fill:#547a82;}.cls-2{fill:#3eaca8;}.cls-3{fill:#557a82;}</style></defs><title>logo_jordan</title><g id="JORDAN_WOOD" data-name="JORDAN WOOD"><path id="J" class="cls-1" d="M73.22,951.35c6.52,10.95,14.22,15.25,25.07,15.25,15.79,0,23.49-9.19,23.49-30.1V843.64h9.08v93.83c0,20.72-8.88,37.34-32.38,37.34-14.61,0-25.47-6.84-32.18-19Z" transform="translate(-66.31 -188.58)"/><path id="O" class="cls-1" d="M241,876.29c22.9,0,42.65,18,42.65,49.46,0,31.08-19.74,49.07-42.65,49.07-22.71,0-42.45-18-42.45-49.07C198.59,894.27,218.33,876.29,241,876.29Zm0,90.9c19.15,0,33.56-16.81,33.56-41.44,0-24.83-14.41-41.83-33.56-41.83s-33.37,17-33.37,41.83C207.67,950.38,221.88,967.19,241,967.19Z" transform="translate(-66.31 -188.58)"/><path id="R" class="cls-1" d="M351.6,878.64h7.5l.79,17.4h.59c6.32-11.53,15.6-19.74,26.85-19.74a19.67,19.67,0,0,1,9.48,2l-2,7.82a20.84,20.84,0,0,0-8.69-1.56c-8.49,0-18.56,6.45-25.86,24v63.92H351.6Z" transform="translate(-66.31 -188.58)"/><path id="D" class="cls-1" d="M485.86,876.29c11.45,0,19.15,4.3,28.63,11.53l-.4-17.2V831.92h8.69V972.47h-7.5l-.79-12.12h-.59c-7.7,7.62-18.16,14.47-30.8,14.47-23.89,0-39.29-17.4-39.29-49.07C443.8,895.45,463.35,876.29,485.86,876.29Zm-1.58,90.9c10.46,0,19.74-5.47,29.81-15.44V896c-10.07-8.8-18.36-12.12-27.64-12.12-19,0-33.37,18.18-33.37,41.83C453.08,950.57,464.14,967.19,484.28,967.19Z" transform="translate(-66.31 -188.58)"/><path id="A" class="cls-1" d="M654.47,913.63c.4-14.27-3.75-29.71-22.31-29.71-12.83,0-23.89,6.26-30.21,10.95L598,888.41c6.71-4.69,19.74-12.12,35.14-12.12,22.51,0,30,16,30,36.16v60h-7.31l-1-12.12h-.4c-9.67,7.62-21.13,14.47-33.56,14.47-15,0-27.64-8-27.64-25.8C593.26,928.29,612.42,918.32,654.47,913.63Zm-32.18,53.76c10.86,0,20.53-5.28,32.18-15.25V920.27c-38.89,4.5-52.12,13.49-52.12,28.34C602.35,962.11,611.43,967.38,622.29,967.38Z" transform="translate(-66.31 -188.58)"/><path id="N" class="cls-1" d="M736.6,878.64h7.5l.79,14.46h.59c9.67-9.58,19.55-16.81,32.58-16.81,19.55,0,28.63,11.73,28.63,36v60.21H798v-59c0-19.94-6.32-29.32-21.72-29.32-11.25,0-19.35,5.87-31,17.59v70.76H736.6Z" transform="translate(-66.31 -188.58)"/><path id="W" class="cls-2" d="M946.48,843.64h9.67l16.19,75.85c3.16,14.08,6.12,28.15,9.08,42h.79c3-13.88,6.52-28,9.87-42l20.53-75.85h9.08l20.53,75.85c3.36,14.08,6.91,28,10.27,42h.79c3-14.07,5.73-28,8.69-42l16.19-75.85h9.08L1058,972.47H1048l-23.69-88.36c-2.37-10.16-4.54-19-6.91-29.13h-.79c-2.17,10.17-4.74,19-7.11,29.13l-23.3,88.36H976.1Z" transform="translate(-66.31 -188.58)"/><path id="O-2" data-name="O" class="cls-2" d="M1184.59,876.29c22.9,0,42.65,18,42.65,49.46,0,31.08-19.74,49.07-42.65,49.07-22.7,0-42.45-18-42.45-49.07C1142.14,894.27,1161.88,876.29,1184.59,876.29Zm0,90.9c19.15,0,33.56-16.81,33.56-41.44,0-24.83-14.41-41.83-33.56-41.83s-33.37,17-33.37,41.83C1151.22,950.38,1165.44,967.19,1184.59,967.19Z" transform="translate(-66.31 -188.58)"/><path id="O-3" data-name="O" class="cls-2" d="M1329.71,876.29c22.9,0,42.65,18,42.65,49.46,0,31.08-19.74,49.07-42.65,49.07-22.71,0-42.45-18-42.45-49.07C1287.26,894.27,1307,876.29,1329.71,876.29Zm0,90.9c19.15,0,33.56-16.81,33.56-41.44,0-24.83-14.41-41.83-33.56-41.83s-33.37,17-33.37,41.83C1296.34,950.38,1310.55,967.19,1329.71,967.19Z" transform="translate(-66.31 -188.58)"/><path id="D-2" data-name="D" class="cls-2" d="M1474.43,876.29c11.45,0,19.15,4.3,28.63,11.53l-.39-17.2V831.92h8.69V972.47h-7.5l-.79-12.12h-.59c-7.7,7.62-18.16,14.47-30.8,14.47-23.89,0-39.29-17.4-39.29-49.07C1432.37,895.45,1451.92,876.29,1474.43,876.29Zm-1.58,90.9c10.46,0,19.74-5.47,29.81-15.44V896c-10.07-8.8-18.36-12.12-27.64-12.12-19,0-33.37,18.18-33.37,41.83C1441.65,950.57,1452.71,967.19,1472.85,967.19Z" transform="translate(-66.31 -188.58)"/></g><g id="w3"><path class="cls-1" d="M1159.75,778.29V269.48c0-23.45.73-47,0-70.48,0-.33,0-.66,0-1,0-12.55-19.5-12.57-19.5,0V706.82c0,23.45-.73,47,0,70.48,0,.33,0,.66,0,1,0,12.55,19.5,12.57,19.5,0Z" transform="translate(-66.31 -188.58)"/></g><g id="w2"><line class="cls-1" x1="914.15" y1="299.83" x2="914.15" y2="589.97"/><path class="cls-2" d="M970.7,488.41V778.55c0,12.55,19.5,12.57,19.5,0V488.41c0-12.55-19.5-12.57-19.5,0Z" transform="translate(-66.31 -188.58)"/></g><g id="w1"><path class="cls-1" d="M819.75,778.29V269.48c0-23.45.73-47,0-70.48,0-.33,0-.66,0-1,0-12.55-19.5-12.57-19.5,0V706.82c0,23.45-.73,47,0,70.48,0,.33,0,.66,0,1,0,12.55,19.5,12.57,19.5,0Z" transform="translate(-66.31 -188.58)"/></g><g id="j2"><path class="cls-1" d="M609.75,778.29V269.48c0-23.45.73-47,0-70.48,0-.33,0-.66,0-1,0-12.55-19.5-12.57-19.5,0V706.82c0,23.45-.73,47,0,70.48,0,.33,0,.66,0,1,0,12.55,19.5,12.57,19.5,0Z" transform="translate(-66.31 -188.58)"/></g><g id="j1"><line class="cls-3" x1="367.15" y1="299.83" x2="367.15" y2="589.97"/><path class="cls-2" d="M423.7,488.41V778.55c0,12.55,19.5,12.57,19.5,0V488.41c0-12.55-19.5-12.57-19.5,0Z" transform="translate(-66.31 -188.58)"/></g></svg>