<svg id="motion" xmlns="http://www.w3.org/2000/svg" viewBox="0 0 587.31 589"><defs><style>.cls-1,.cls-3{fill:#a2d4ab;}.cls-2{fill:#fff;opacity:0.85;}.cls-3{opacity:0.9;}</style></defs><title>video_icon</title><rect id="box" class="cls-1" x="23.91" y="246.16" width="549.02" height="342.84"/><rect id="box-2" data-name="box" class="cls-2" x="101.82" y="308.5" width="383.59" height="203.05"/><rect id="box3" class="cls-1" x="11.92" y="169.44" width="575.39" height="77.27"/><rect id="box3-2" data-name="box3" class="cls-1" x="130.02" y="72.68" width="575.39" height="77.27" transform="translate(-140.7 51.43) rotate(-10.04)"/><polygon id="line" class="cls-2" points="37.52 104.84 83.55 94.78 136.25 144.59 88.94 153.79 37.52 104.84"/><polygon id="line-2" data-name="line" class="cls-2" points="135.52 85.72 181.94 77.7 232.4 129.78 184.73 136.89 135.52 85.72"/><polygon id="line-3" data-name="line" class="cls-2" points="238.62 68.05 285.05 60.05 335.48 112.15 287.81 119.24 238.62 68.05"/><polygon id="line-4" data-name="line" class="cls-2" points="341.11 51.06 387.28 41.72 439.2 92.35 391.76 100.81 341.11 51.06"/><polygon id="line-5" data-name="line" class="cls-2" points="436.07 33.24 482.37 24.49 533.63 75.78 486.07 83.63 436.07 33.24"/><polygon id="line-6" data-name="line" class="cls-2" points="462.82 176.64 507.89 176.85 545.01 240.5 498.96 239.1 462.82 176.64"/><polygon id="line-7" data-name="line" class="cls-2" points="358.53 176.64 403.6 176.85 440.72 240.5 394.67 239.1 358.53 176.64"/><polygon id="line-8" data-name="line" class="cls-2" points="255.44 176.64 300.51 176.85 337.63 240.5 291.58 239.1 255.44 176.64"/><polygon id="line-9" data-name="line" class="cls-2" points="148.75 176.64 193.82 176.85 230.94 240.5 184.89 239.1 148.75 176.64"/><polygon id="line-10" data-name="line" class="cls-2" points="45.66 176.64 90.73 176.85 127.85 240.5 81.8 239.1 45.66 176.64"/><polygon id="play_button" data-name="play button" class="cls-3" points="242.07 340.98 242.07 479.92 373.94 410.89 242.07 340.98"/></svg>