<svg id="icon" xmlns="http://www.w3.org/2000/svg" viewBox="0 0 672.9 543"><defs><style>.cls-1,.cls-3,.cls-4{fill:#a2d4ab;}.cls-2{fill:#fff;}.cls-3{opacity:0.56;}.cls-4{opacity:0.28;}.cls-5{fill:#fcfcfc;}</style></defs><title>web_icon</title><g id="Layer_3" data-name="Layer 3"><rect id="stand" class="cls-1" x="47.45" width="625.45" height="457.02" rx="44" ry="44"/><rect id="screen" class="cls-2" x="107.9" y="44.17" width="504.55" height="368.67" rx="44" ry="44"/><rect id="holder" class="cls-1" x="311.89" y="438.17" width="96.59" height="82.89" rx="12" ry="12"/><rect id="box8" class="cls-1" x="228.85" y="507.07" width="272.09" height="35.34" rx="12" ry="12"/><rect id="box7" class="cls-3" x="144.92" y="80.39" width="58.01" height="58.01"/><rect id="box6" class="cls-4" x="235.18" y="80.39" width="355.72" height="58.82"/><rect id="box5" class="cls-3" x="112.68" y="166.07" width="122.5" height="112.91"/><rect id="box4" class="cls-3" x="285.83" y="166.07" width="122.5" height="112.91"/><rect id="box3" class="cls-3" x="468.4" y="163.72" width="122.5" height="112.91"/><rect id="box2" class="cls-4" x="132.26" y="321.7" width="276.06" height="42.4"/><rect id="box1" class="cls-4" x="433.8" y="321.7" width="157.1" height="42.4"/></g><g id="tablet"><rect id="tablet-2" data-name="tablet" class="cls-1" y="163.72" width="225.31" height="379.28" rx="18" ry="18"/><rect class="cls-2" x="18.41" y="209.66" width="187.4" height="285.05" rx="19" ry="19"/><rect id="camera" class="cls-2" x="82.96" y="184.93" width="57.72" height="11.78" rx="4.75" ry="4.75"/><circle id="button" class="cls-5" cx="113.78" cy="514.12" r="11.48"/><rect id="box6-2" data-name="box6" class="cls-3" x="27.9" y="339.49" width="75.28" height="70.27"/><rect id="box5-2" data-name="box5" class="cls-3" x="111.72" y="339.49" width="82.64" height="70.27"/><rect id="box4-2" data-name="box4" class="cls-4" x="34.01" y="276.8" width="158.86" height="47.26"/><rect id="box3-2" data-name="box3" class="cls-3" x="58.2" y="228.51" width="100.17" height="32.86"/><rect id="box2-2" data-name="box2" class="cls-4" x="84.87" y="425.19" width="110.36" height="47.26"/><rect id="box1-2" data-name="box1" class="cls-4" x="31.36" y="425.19" width="46.57" height="47.26"/></g></svg>